<svg xmlns="http://www.w3.org/2000/svg" viewBox="0 0 480 270" role="img" aria-label="Example Panel Demo preview">
  <rect width="480" height="270" fill="#12161c"/>
  <rect x="16" y="16" width="216" height="238" rx="8" fill="#1b232e"/>
  <rect x="248" y="16" width="216" height="150" rx="8" fill="#1b232e"/>
  <rect x="248" y="178" width="216" height="76" rx="8" fill="#1b232e"/>
  <circle cx="46" cy="44" r="9" fill="#5b8def"/>
  <rect x="64" y="38" width="120" height="12" rx="6" fill="#3a4757"/>
  <rect x="36" y="78" width="176" height="10" rx="5" fill="#2b3543"/>
  <rect x="36" y="100" width="140" height="10" rx="5" fill="#2b3543"/>
  <rect x="36" y="122" width="160" height="10" rx="5" fill="#2b3543"/>
  <rect x="36" y="196" width="120" height="28" rx="6" fill="#3a6ad4"/>
  <rect x="272" y="40" width="150" height="14" rx="7" fill="#3a4757"/>
  <rect x="272" y="74" width="168" height="9" rx="4" fill="#2b3543"/>
  <rect x="272" y="92" width="168" height="9" rx="4" fill="#2b3543"/>
  <rect x="272" y="110" width="120" height="9" rx="4" fill="#2b3543"/>
  <rect x="272" y="206" width="80" height="20" rx="4" fill="#2b3543"/>
  <text x="240" y="262" fill="#5b6675" font-family="sans-serif" font-size="11" text-anchor="middle">Example Panel Demo</text>
</svg>
